# xmcd
#
# Track frame offsets:
#	150
#	15556
#	31509
#	48390
#	62522
#	77534
#	91711
#	106902
#	122545
#	139675
#	157793
#	174877
#	192511
#	210018
#	228332
#	246337
#	261614
#	274314
#	290778
#	311033
#
# Disc length: 4315 seconds
#
# Revision: 1
# Processed by: cddbd v1.5.2PL0 Copyright (c) Steve Scherf et al.
# Submitted via: audiograbber 1.83.01
#
DISCID=0410d914
DTITLE=Various Artist - CDX Volume 424 - June 2007
DYEAR=2007
DGENRE=Country
TTITLE0=Lisa Shaffer - Just One
TTITLE1=Kenny Chesney - Never Wanted Nothing More
TTITLE2=Flynnville Train - Nowhere Than Somewhere
TTITLE3=Hal Ketchum - In Front Of The Alamo
TTITLE4=Andy Griggs - Tattoo Rose
TTITLE5=Waycross - 19
TTITLE6=Collin Raye - A Soldier's Prayer
TTITLE7=Crossin Dixon - Guitar Slinger
TTITLE8=Porter Wagoner - Commited To Parkview
TTITLE9=Major Rising ft Brian White, John Berry, Mila Mason, Wayne Warner, Kevi
TTITLE9=n Sharp, Jimmy Fortune, Linda Davis, Mark Collie, +1 - Dare The World
TTITLE10=Katie Armiger - 17 In Abilene
TTITLE11=Kim McBee - American Boys
TTITLE12=Robin English - Cotton Field Girl
TTITLE13=Lacy Younger - Didn't I
TTITLE14=Annie Sims - Everything I Knew About Leavin
TTITLE15=Tommy Wood - Outta California
TTITLE16=Russell Walker - Somethin' Somethin'
TTITLE17=Darren Hincks - The Rider - Souther Signs
TTITLE18=Connie Kis Andersen - Wicked Game
TTITLE19=Randy Harrington - Spend My Nights In Love With You
EXTD=
EXTT0=
EXTT1=
EXTT2=
EXTT3=
EXTT4=
EXTT5=
EXTT6=
EXTT7=
EXTT8=
EXTT9=
EXTT10=
EXTT11=
EXTT12=
EXTT13=
EXTT14=
EXTT15=
EXTT16=
EXTT17=
EXTT18=
EXTT19=
PLAYORDER=
